<?xml version="1.0" encoding="UTF-8"?>
<svg width="476.07" height="470.25" version="1.1" viewBox="0 0 476.07 470.25" xmlns="http://www.w3.org/2000/svg" xmlns:cc="http://creativecommons.org/ns#" xmlns:dc="http://purl.org/dc/elements/1.1/" xmlns:rdf="http://www.w3.org/1999/02/22-rdf-syntax-ns#">
 <metadata>
  <rdf:RDF>
   <cc:Work rdf:about="">
    <dc:format>image/svg+xml</dc:format>
    <dc:type rdf:resource="http://purl.org/dc/dcmitype/StillImage"/>
    <dc:title/>
   </cc:Work>
  </rdf:RDF>
 </metadata>
 <g>
  <path d="m166.24 181.69 19.133-22.199 13.127 18.664-3.016 6.3192-10.207 9.8841-4.8129 3.4102z" fill="#f9f2f2" stroke="#000" stroke-width=".18367px"/>
  <path d="m237.23 132.69c-21.298 29.167-18.658 56.265-18.658 56.265l5.5306 10.459-4.9527 8.5956-3.0306-5.6938c-1.5737 22.767-28.499 22.503-37.836 30.581-.83933-1.3639.36699-13.726.36699-13.726s-9.5993 10.34-18.832 7.4028c-3.6721-1.6787-5.3411-17.99-9.223-18.514 0 0-12.293 3.5571-22.47 28.842-38.02 23.798-11.538 42.738-32.082 79.157 0 5.9743-27.626 23.58-31.523 36.828l-18.435 14.54s-10.649 23.273-14.805 27.818c-.61201 4.2635 4.0741 17.114 4.0623 17.121 3.5066 9.8705 32.23 28.284 32.23 30.751l8.9532 1.9454c16.234 16.624 31.558 4.0056 31.558 4.0056l10.641-24.124c21.04-20.39 42.13-10.204 74.339-50.726 8.6032.6295 28.017-.9786 28.017-.9786-.00275.0199 28.678-14.242 45.675-37.434 60.595 49.26 35.486 87.731 12.817 137.89 0 0 386.47 118.84 132.07-166.35 0 0-27.933-52.481-39.741-60.262l-2.5976 7.0136-9.0914-10.65c2.6229 6.1901-1.818 19.741-1.818 19.741s-32.633-40.046-37.145-40.781c-3.7836 6.9736 2.0781 17.403 2.0781 17.403-62.121-14.591-56.736-56.198-73.711-58.883l-.34545 1.8604c.9426-14.102-.81117-32.826-12.044-50.108z" fill="#fff"/>
  <path d="m129.68 411.6c-9.0794 5.0247-13.39 15.846-16.546 23.519-1.501 3.6954-2.5933 6.9458-3.474 9.336-.44034 1.1952-.82978 2.1768-1.1748 2.8699s-.69777 1.0628-.74509 1.0877c-.06128.0323-.11768.0731-.16753.1212 0 0-1.9018 2.6147-7.3911 3.7641-5.4893 1.1494-13.057.2565-21.667-8.389-.69095-.7227-3.2301.9725-2.5103 1.6664 8.8819 8.919 17.093 10.029 23.009 8.7904 5.8681-1.2287 9.5931-4.3177 9.5931-4.3177.54549-.351 1.4172-1.3446 1.7775-2.0684.39356-.7906.79115-1.8768 1.238-3.0895.89367-2.4256 1.9024-5.4981 3.3838-9.1453 3.4454-8.2924 6.6807-18.336 14.674-24.145z" color="#000000" color-rendering="auto" dominant-baseline="auto" image-rendering="auto" shape-rendering="auto" solid-color="#000000" style="font-feature-settings:normal;font-variant-alternates:normal;font-variant-caps:normal;font-variant-ligatures:normal;font-variant-numeric:normal;font-variant-position:normal;isolation:auto;mix-blend-mode:normal;shape-padding:0;text-decoration-color:#000000;text-decoration-line:none;text-decoration-style:solid;text-indent:0;text-orientation:mixed;text-transform:none;white-space:normal"/>
  <path d="m150.62 207.32c-.09086-.0018-.18123.0136-.26654.0448-7.4396 2.6139-12.849 9.8303-16.834 16.556-1.9922 3.363-3.6258 6.6178-4.9458 9.1337-.66002 1.258-1.2427 2.332-1.7406 3.1285-.49784.7966-.96037 1.3111-1.1196 1.4106l.00933-.0054c-15.789 9.5511-20.208 20.305-21.131 30.333-.92305 10.028 1.4415 19.318-.77056 26.138l-.01039.032-.00753.033c-1.3316 5.8971-3.4642 10.401-5.2601 13.896-1.7562 3.4171-3.2732 5.7877-3.2268 7.9298-.428 2.5068-1.9279 4.6803-4.1853 6.8959-2.2622 2.2204-5.2626 4.4508-8.5199 7.0305-6.5145 5.1593-14.062 11.746-18.765 22.718l-.030133.0703-.015061.075c-.008247.0412-.15289.3342-.49505.6881-.34216.3539-.85099.7839-1.4783 1.2591-1.2547.9506-2.983 2.09-4.8884 3.3574-3.8109 2.5348-8.3338 5.5754-11.392 8.8811l-.087531.0947-.050223.1184c-4.8221 11.426-10.059 21.579-14.065 26.905l-.008963.0121-.008614.0125c-.86977 1.2612-.94415 3.0177-.74437 4.9555.19978 1.9379.72297 4.0824 1.328 6.0963 1.2041 4.0078 2.7361 7.4831 2.7515 7.518 2.0204 6.5409 8.6102 11.569 15.389 16.358 6.7998 4.8033 13.837 9.3928 16.892 14.497l.12592.2109.2278.0926c6.3236 2.5707 11.718 1.7061 16.316-1.1602 4.5983-2.8663 8.4505-7.6514 12.1-12.936 7.2985-10.569 13.87-23.124 22.779-26.743.91654-.3649.35819-1.7391-.55316-1.3614-9.7487 3.9605-16.907 16.358-24.124 26.809-3.6088 5.2259-6.5794 8.8192-10.864 11.49-4.238 2.6417-8.3137 3.9569-14.18 1.6302-3.4175-5.4986-10.636-10.402-17.303-15.111-6.7643-4.7783-12.71-8.9466-14.502-14.839l-.012563-.0423-.017945-.0405s-1.5201-3.4479-2.6984-7.3698c-.58913-1.961-1.0894-4.0389-1.2735-5.8244-.18407-1.7855-.00248-3.253.49254-3.9708 4.1559-5.5255 8.4157-15.051 13.248-26.483 2.8716-3.0744 7.277-6.0679 11.049-8.5766 1.902-1.2651 3.6411-2.4086 4.962-3.4094.66046-.5003 1.2163-.9633 1.6473-1.4091.43096-.4457.76759-.859.87997-1.4209l-.045199.1453c4.5622-10.645 11.856-17.021 18.326-22.146 3.2353-2.5623 6.2636-4.8042 8.6368-7.1334 2.3732-2.3293 4.1127-4.7781 4.6086-7.7157l.013629-.081-.004298-.0822c-.071882-1.2938 1.2574-3.7933 3.0718-7.3239 1.8124-3.5265 4.0105-8.1643 5.3813-14.224 2.3961-7.4546.2989-16.724 1.1906-26.412.89349-9.7071 5.317-18.01 20.796-27.374.00439-.8099.00374-.8233.00896-.0055.6128-.383 1.0485-1.0162 1.587-1.878.53857-.8617 1.1303-1.9568 1.7955-3.2246 1.3304-2.5357 2.9494-5.7591 4.9092-9.0673 3.9196-6.6165 9.9476-14.25 16.791-16.654.78126-.263-.86578-2.5175-1.69-2.533z" color="#000000" color-rendering="auto" dominant-baseline="auto" image-rendering="auto" shape-rendering="auto" solid-color="#000000" style="font-feature-settings:normal;font-variant-alternates:normal;font-variant-caps:normal;font-variant-ligatures:normal;font-variant-numeric:normal;font-variant-position:normal;isolation:auto;mix-blend-mode:normal;shape-padding:0;text-decoration-color:#000000;text-decoration-line:none;text-decoration-style:solid;text-indent:0;text-orientation:mixed;text-transform:none;white-space:normal"/>
 </g>
 <path d="m118.73 424.94c32.651-28.132 33.963-3.2068 74.339-50.725" fill="none" stroke="#000" stroke-linecap="round" stroke-width="1.4694"/>
 <path d="m170.84 370.43c1.343 1.9252 40.4 8.007 51.778 3.1532 51.502-25.75 62.232-62.596 58.419-98.774 1.4694 61.162-32.364 80.155-57.883 96.095-8.902 6.279-52.314-.4746-52.314-.4746z"/>
 <path d="m207.31 251.82c-5.8412 4.4974-14.845 5.2059-20.707 7.2085-2.3924.8731-4.4257 2.5851-6.0195 6.2413-1.575 3.613-2.823 9.1674-3.95 17.979-1.5185 1.2379-1.8541 2.8769-1.1494 3.9435.37269.5641 1.0581.9217 1.7782.8509.61211-.0601 1.1995-.4097 1.7165-.9829 35.244 2.2162 25.313-24.325 29.855-30.555-8.8163 1.5412 7.0206 30.138-30.123 29.072-.24929-.0173-.49024.0934-.63962.2938-.40406.5423-.75532.6901-.95315.7095-.19783.0195-.30458-.0413-.40859-.1987-.20802-.3148-.30026-1.1948 1.0389-2.1545.16617-.1191.27523-.302.30097-.5048 1.13-8.9373 2.3954-14.459 3.8808-17.867 1.4853-3.4072 3.085-4.6845 5.1762-5.4477 6.8473-2.0571 18.164-4.4371 20.204-8.5889z" color="#000000" color-rendering="auto" dominant-baseline="auto" image-rendering="auto" shape-rendering="auto" solid-color="#000000" style="font-feature-settings:normal;font-variant-alternates:normal;font-variant-caps:normal;font-variant-ligatures:normal;font-variant-numeric:normal;font-variant-position:normal;isolation:auto;mix-blend-mode:normal;shape-padding:0;text-decoration-color:#000000;text-decoration-line:none;text-decoration-style:solid;text-indent:0;text-orientation:mixed;text-transform:none;white-space:normal"/>
 <path d="m178.93 273.64c3.2068-11.807 19.252-5.55 28.417-15.343" fill="none" stroke="#000" stroke-width="1.4694"/>
 <path d="m198.89 269.8c0 4.0558-3.2879 7.3437-7.3437 7.3437-4.0558 0-7.3437-3.2879-7.3437-7.3437 0-2.0279-.00588-1.7896.89676-2.9599 1.6234-1.4286 11.083-2.6816 11.083-2.6816 1.4537.3801 2.7074 1.5857 2.7074 5.6415z" fill="#f00" stroke="#000" stroke-linecap="round" stroke-linejoin="round" stroke-width="1.4694"/>
 <g shape-rendering="auto">
  <path d="m92.314 361.72c-16.462 9.3577-15.556 14.811-15.556 14.811 4.9968-7.2093 12.1-11.216 17.74-14.667 5.6407-3.4514 9.8313-6.8119 11.724-11.044-3.529 3.482-8.75 7.9654-13.908 10.899z" color="#000000" color-rendering="auto" dominant-baseline="auto" image-rendering="auto" solid-color="#000000" style="font-feature-settings:normal;font-variant-alternates:normal;font-variant-caps:normal;font-variant-ligatures:normal;font-variant-numeric:normal;font-variant-position:normal;isolation:auto;mix-blend-mode:normal;shape-padding:0;text-decoration-color:#000000;text-decoration-line:none;text-decoration-style:solid;text-indent:0;text-orientation:mixed;text-transform:none;white-space:normal"/>
  <path d="m62.572 394.79c-.97946 0-1.9539.3075-2.8182.9678-1.1524.8806-3.153 3.6133-3.7602 5.8061 2.4101-2.484 3.5551-3.7727 4.6524-4.6388.84326-.6442 1.6592-.79 2.608-.5955 1.8975.3892 4.2587 2.429 6.4073 5.1927 2.1486 2.7638 4.1209 6.1994 5.5238 9.2026 1.4165 2.319 2.6766 4.7789 3.0776 7.7766.050695-.7858.34717-2.9783-.048428-4.1954-.3956-1.2171-.97584-2.6575-1.6979-4.2033-1.4441-3.0915-3.4527-6.5978-5.6952-9.4823-2.2425-2.8846-4.6826-5.1995-7.2719-5.7304-.32365-.0664-.6507-.1002-.97719-.1001z" color="#000000" color-rendering="auto" dominant-baseline="auto" image-rendering="auto" solid-color="#000000" style="font-feature-settings:normal;font-variant-alternates:normal;font-variant-caps:normal;font-variant-ligatures:normal;font-variant-numeric:normal;font-variant-position:normal;isolation:auto;mix-blend-mode:normal;shape-padding:0;text-decoration-color:#000000;text-decoration-line:none;text-decoration-style:solid;text-indent:0;text-orientation:mixed;text-transform:none;white-space:normal"/>
  <path d="m53.823 406.2c-1.6897 2.0951-3.0539 5.0364-1.9615 7.7075 1.4103 2.5021 4.4956 3.0848 7.065 3.6735 3.5637.7502 6.9361 2.3025 9.844 4.492-2.4-3.7348-6.9431-4.9888-10.95-6.183-1.9364-.5954-4.4066-1.2095-4.9361-3.4976-.69378-2.1169.53264-4.1549.93902-6.1924z" color="#000000" color-rendering="auto" dominant-baseline="auto" image-rendering="auto" solid-color="#000000" style="font-feature-settings:normal;font-variant-alternates:normal;font-variant-caps:normal;font-variant-ligatures:normal;font-variant-numeric:normal;font-variant-position:normal;isolation:auto;mix-blend-mode:normal;shape-padding:0;text-decoration-color:#000000;text-decoration-line:none;text-decoration-style:solid;text-indent:0;text-orientation:mixed;text-transform:none;white-space:normal"/>
  <path d="m82.799 423.39s1.433-.4433 1.4979-4.5993c0 0-.35344-10.148-7.7036-16.886 5.0739 7.1087 7.6327 15.166 6.2057 21.485z" color="#000000" color-rendering="auto" dominant-baseline="auto" image-rendering="auto" solid-color="#000000" style="font-feature-settings:normal;font-variant-alternates:normal;font-variant-caps:normal;font-variant-ligatures:normal;font-variant-numeric:normal;font-variant-position:normal;isolation:auto;mix-blend-mode:normal;shape-padding:0;text-decoration-color:#000000;text-decoration-line:none;text-decoration-style:solid;text-indent:0;text-orientation:mixed;text-transform:none;white-space:normal"/>
  <path d="m249.59 180.19c-.37687.0156-.68074.314-.70311.6906-1.6319 22.105 13.353 39.462 13.353 39.462.71824.7737 2.9326 2.328 4.1841 2.2492-.91203-.5596-1.6427-1.3841-1.9603-1.7571 0 0-15.686-18.513-14.111-39.846.03887-.4417-.31933-.8169-.76231-.7986z" color="#000000" color-rendering="auto" dominant-baseline="auto" image-rendering="auto" solid-color="#000000" style="font-feature-settings:normal;font-variant-alternates:normal;font-variant-caps:normal;font-variant-ligatures:normal;font-variant-numeric:normal;font-variant-position:normal;isolation:auto;mix-blend-mode:normal;shape-padding:0;text-decoration-color:#000000;text-decoration-line:none;text-decoration-style:solid;text-indent:0;text-orientation:mixed;text-transform:none;white-space:normal"/>
 </g>
 <path d="m224.24 155.84c-10.515-2.9345-19.291 10.01-19.291 10.01s-8.6677 1.1848-13.94 2.8347c3.1833 3.7641 7.4875 9.47 7.4875 9.47s-2.9574 7.2139-3.0014 7.2433c-17.626 11.331-17.212 47.492-17.212 47.492 15.108-10.911 38.676-7.4994 37.836-30.581l3.0306 5.6938c1.6508-2.8651 2.3411 2.9147 4.9525-8.5953 0 0-2.3829-8.5709-5.5304-10.46 0 0 .00257-18 5.668-33.108z" fill="#d2d2d2"/>
 <path d="m157.5 171.61c-4.5186-13.993 3.3525-26.82-13.264-43.292 28.861-9.0373 37.501 34.685 54.264 49.844" fill="none" stroke="#000" stroke-linecap="round" stroke-width="1.8367"/>
 <g fill="#fff687">
  <path d="m153.59 210.21s4.1568 14.88 6.234 16.364c8.0123 1.187 18.832-7.4029 18.832-7.4029s5.7122-21.958 6.6236-24.806l-5.722-1.2653z"/>
  <g stroke="#000" stroke-width="1.4694">
   <path d="m139.89 190.16c2.6798 10.101 15.418 21.634 15.418 21.634 4.7412 1.8552 21.439-3.2983 25.149-14.018.82456-6.5965-5.3596-5.1535-14.224-16.079"/>
   <path d="m126.77 170.72c3.644 13.847 11.634 18.665 11.634 18.665 1.3457 1.7868 4.6393-.3904 6.7932-1.5521 4.1021-2.4665 18.98 1.4045 21.041-6.1435-.58304-5.1017-18.652-16.647-18.652-16.647" stroke-linecap="round"/>
   <path d="m115.33 153.97s6.0936 14.61 10.973 16.036c3.2982.773 6.1261-.8836 8.2906-.8836 4.0197-.1031 10.517-2.2171 12.991-4.0723 1.0941-1.9864-5.6112-7.7295-15.464-15.305" stroke-linecap="round"/>
  </g>
 </g>
 <path d="m153.59 210.21s3.117 15.455 6.234 16.364c8.1821 1.6884 18.832-7.4029 18.832-7.4029" fill="none" stroke="#000" stroke-linecap="round" stroke-width="1.4694"/>
 <path d="m179.55 193.1c.25974-1.4286 5.722 1.2653 5.722 1.2653" fill="none" stroke="#000" stroke-linecap="round" stroke-width="1.4694"/>
 <path d="m195.48 184.48c-.14448.0041-.28594.0422-.41291.1112-9.5775 5.0366-13.888 17.205-15.929 27.989-2.0416 10.784-1.7736 20.341-1.7736 20.341l.05094 1.8442 1.4407-1.1522c8.0671-6.4537 16.418-7.6313 23.507-10.472 3.5447-1.4202 6.7816-3.2898 9.3356-6.4869 2.5541-3.1971 4.3947-7.6726 5.3286-14.21.20148-1.233-1.6662-1.4998-1.8181-.2597-.90282 6.3198-1.909 8.9727-4.2108 11.854-2.3018 2.8812-5.1948 4.5702-8.5837 5.928-6.3811 2.5567-14.493 3.8236-22.483 9.6126.02734-3.2067.26783-10.32 1.7456-18.127 1.9992-10.561 5.5606-20.669 14.245-25.236.87405-.4438.53793-1.7649-.44195-1.737z" color="#000000" color-rendering="auto" dominant-baseline="auto" image-rendering="auto" shape-rendering="auto" solid-color="#000000" style="font-feature-settings:normal;font-variant-alternates:normal;font-variant-caps:normal;font-variant-ligatures:normal;font-variant-numeric:normal;font-variant-position:normal;isolation:auto;mix-blend-mode:normal;shape-padding:0;text-decoration-color:#000000;text-decoration-line:none;text-decoration-style:solid;text-indent:0;text-orientation:mixed;text-transform:none;white-space:normal"/>
 <path d="m223.65 155.57c-18.367-6.5203-30.214 38.204-30.214 38.204 5.051 2.6632 16.011-2.2801 16.011-2.2801m-.4119-15.996c-4.7124 18.862 9.6558 26.266 10.115 32.511 2.7551-1.0102 4.9525-8.5953 4.9525-8.5953" fill="none" stroke="#000" stroke-linecap="round" stroke-width="1.4694"/>
 <path d="m247.52 154.49c1.1685 1.0572 2.0981 26.444 2.0981 26.444 26.411 8.0122 2.4835 39.233 75.47 59.405 0 0-7.9909-13.77-3.8364-17.924 0 0 29.726 28.02 37.144 40.781 0 0 3.8955-12.619 1.8182-19.741l9.0913 10.65 2.5975-7.0132c19.586 21.96 39.742 60.262 39.742 60.262 154.31 269.45 54.841.5988 54.841.5988s-17.023-61.447-45.214-70.646c-1.4732-7.1395-24.293-39.754-48.33-42.425 0 0-58.356-47.81-125.42-40.391z" fill="#d2d2d2"/>
 <path d="m237.23 131.14-.73683 1.0056s-21.806 29.53-18.83 56.906l.03515.3243.23174.2296c6.5519 6.4818 6.5171 17.455 6.5171 17.455 0 1.4023-.77474 3.7413-.77474 3.7413s2.6916-2.1984 2.6114-3.7209c0 0 .19695-11.3-6.8177-18.514-2.3981-23.521 15.11-48.431 18.569-53.468 11.861 18.805 12.932 45.556 7.9381 70.478 0 0 14.802-42.636-8.0015-73.436z" color="#000000" color-rendering="auto" dominant-baseline="auto" image-rendering="auto" shape-rendering="auto" solid-color="#000000" style="font-feature-settings:normal;font-variant-alternates:normal;font-variant-caps:normal;font-variant-ligatures:normal;font-variant-numeric:normal;font-variant-position:normal;isolation:auto;mix-blend-mode:normal;shape-padding:0;text-decoration-color:#000000;text-decoration-line:none;text-decoration-style:solid;text-indent:0;text-orientation:mixed;text-transform:none;white-space:normal"/>
 <g fill="none" stroke="#000">
  <g>
   <path d="m191.01 168.69s6.6511-1.9165 13.998-2.4675" stroke-width="2.2041"/>
   <path d="m249.62 180.93c20.78 3.8963 10.86 45.38 76.317 59.926 0 0-9.0988-9.6138-4.6831-18.445" stroke-width="1.8367"/>
   <path d="m304.63 199.56c-2.5975 9.351 28.573 28.832 53.768 63.639 0 0 5.4547-12.988 1.8182-19.741 3.3768 1.2987 5.195 9.0912 9.0913 10.65 0 0 3.117-5.195 3.3768-11.948" stroke-width="2.2041"/>
   <path d="m371.91 247.09c12.726 11.794 97.531 159.68 99.637 158" stroke-width="2.2041"/>
  </g>
  <path d="m248 154.43c58.184-9.351 136.89 41.04 135.59 56.626" stroke-linecap="round" stroke-width="2.2041"/>
 </g>
 <g>
  <path d="m375.81 194.87c-.6393-.0382-2.2473-.0361-2.8662.0095l.11343 2.2791c4.3568-.3203 10.744 1.8709 16.32 5.6276 5.5758 3.7566 11.315 9.0403 16.432 14.719 5.1173 5.6783 9.6166 11.754 12.735 17.077 1.5694 2.5495 3.0695 6.367 5.3741 14.174.3937-3.2282-2.3735-13.079-4.038-15.691-3.1866-5.4392-7.7379-11.58-12.921-17.33-5.1826-5.7508-10.992-11.109-16.717-14.966-5.0093-3.375-9.9568-5.63-14.432-5.8971z" color="#000000" color-rendering="auto" dominant-baseline="auto" image-rendering="auto" shape-rendering="auto" solid-color="#000000" style="font-feature-settings:normal;font-variant-alternates:normal;font-variant-caps:normal;font-variant-ligatures:normal;font-variant-numeric:normal;font-variant-position:normal;isolation:auto;mix-blend-mode:normal;shape-padding:0;text-decoration-color:#000000;text-decoration-line:none;text-decoration-style:solid;text-indent:0;text-orientation:mixed;text-transform:none;white-space:normal"/>
  <path d="m266.53 337.07c18.887 17.056 29.341 32.851 34.712 46.654 9.4164 27.287-15.5 73.254-23.636 93.779 20.228-36.171 33.839-69.606 26.214-95.006-6.8632-19.491-24.34-37.174-36.059-47.456-1.2332 3.6586-1.3392 1.0864-1.2315 2.0288z"/>
  <path d="m9.5693 204.56c39.892 10.59 83.592 16.114 123.32 1.8675 28.254-9.851 52.026-33.881 57.575-63.824 7.4731-36.636-8.9505-74.443-35.057-99.857-4.5306-9.1223-9.0611-18.245-13.592-27.367-2.7551 2.6938-5.5101 5.3877-8.2652 8.0815 4.0464 10.787 9.9719 21.04 11.011 32.719 5.2199 29.63-2.7235 61.681-23.387 83.927-27.875 30.5-67.57 44.59-109.03 51.78-2.3304 5.2444-1.7143 8.4489-2.5714 12.673z" fill="#ffff14" stroke="#000" stroke-width="1.8367"/>
  <path d="m161.77 58.152c54.692 103.95-39.113 159.64-127.85 140.43 98.522 13.893 173.07-42.921 127.85-140.43z" color="#000000" color-rendering="auto" dominant-baseline="auto" image-rendering="auto" shape-rendering="auto" solid-color="#000000" style="font-feature-settings:normal;font-variant-alternates:normal;font-variant-caps:normal;font-variant-ligatures:normal;font-variant-numeric:normal;font-variant-position:normal;isolation:auto;mix-blend-mode:normal;shape-padding:0;text-decoration-color:#000000;text-decoration-line:none;text-decoration-style:solid;text-indent:0;text-orientation:mixed;text-transform:none;white-space:normal"/>
 </g>
 <g fill="none" stroke="#000" stroke-width="1.4694">
  <path d="m136.97 128.53c9.351-1.5585 16.105 1.5585 13.247 10.39"/>
  <path d="m141.91 105.41 8.0522 8.5717"/>
  <path d="m151 102.55-10.39 10.91"/>
  <path d="m156.71 104.63 9.351 10.65"/>
  <path d="m154.63 113.46 14.026-10.39"/>
 </g>
 <g>
  <path d="m.88716 202.15c1.1829-4.616 3.3557-10.448 3.3557-10.448l7.8979.1836-2.621 12.836z" fill="#551f14" stroke="#000" stroke-width="1.4694"/>
  <path d="m112.1 151.26c-3.6365 3.3767-5.1846 7.7404-.5091 8.0002 8.5717-4.156-1.8182 12.853 3.8962 13.112 6.7535 1.8182 1.039-9.0913 5.7145-11.948 3.117-1.8183 9.9226-2.6704 13.819-3.7094 3.6365-3.117 3.117-7.7925 3.117-7.7925s-3.117-4.156-6.7535-2.8572" fill="#f00"/>
  <path d="m126.75 16.662 9.1836-15.061 5.8775 13.775-8.2652 8.0815z" fill="#551f14" stroke="#000" stroke-width="1.4694"/>
 </g>
 <path d="m9.5693 204.56c162.05 44.197 228.81-69.911 145.83-161.81" fill="none" stroke="#000" stroke-width="2.2041"/>
 <g>
  <path d="m104.6 140.31c-.95844 1.8226 9.1672 12.492 9.1672 12.492 1.8949 2.1865 7.1424-.8746 8.8915-.7288 2.0407.1458 9.1694 0 9.4609-2.3319-.29153-2.478-16.366-14.229-18.333-13.353" fill="#fff687" stroke="#000" stroke-width="1.4694"/>
  <path d="m104.6 140.31-31.539-42.516 41.331 38.445c.41228 3.4013-9.3278 4.7928-9.7916 4.0713z" fill="#fff687" stroke="#000" stroke-miterlimit="20" stroke-width="1.4694"/>
  <path d="m121.42 396.07c.22138 2.1889-.65938 3.45-1.5234 4.2964-1.5006 1.501-2.4599.8435-2.4559 2.1985.77096 1.1721 2.8166-.6398 2.8166-.6398 1.5934-1.3786 2.0731-4.1123 1.1627-5.8551z" color="#000000" color-rendering="auto" dominant-baseline="auto" image-rendering="auto" shape-rendering="auto" solid-color="#000000" style="font-feature-settings:normal;font-variant-alternates:normal;font-variant-caps:normal;font-variant-ligatures:normal;font-variant-numeric:normal;font-variant-position:normal;isolation:auto;mix-blend-mode:normal;shape-padding:0;text-decoration-color:#000000;text-decoration-line:none;text-decoration-style:solid;text-indent:0;text-orientation:mixed;text-transform:none;white-space:normal"/>
 </g>
 <path d="m421.27 237.31c49.683 20.826 77.88 201.27 78.875 184.8" fill="none" stroke="#000" stroke-linecap="round" stroke-width="1.8367"/>
 <g>
  <path d="m371.55 242.19s.39695-4.1242-.61754-7.2558c0 0 2.6024 2.6685 2.8671 7.344z"/>
  <path d="m305.68 199.89s.96277-3.3081 3.4407-4.8229c0 0-3.8836.0184-5.5463 4.2348z"/>
  <path d="m208.32 175.33c.13764-.4818.86145-1.6916 2.1529-2.4211l-.71529 2.7298z"/>
  <path d="m382.52 210.52c.03389.7496-.72976 12.682 1.6739 15.483-.94653-8.2607.26937-10.203.52754-15.38z"/>
 </g>
</svg>
