<svg width="804" height="1024" xmlns="http://www.w3.org/2000/svg" version="1.1">
 <metadata>image/svg+xml</metadata>

 <g>
  <title>background</title>
  <rect fill="none" id="canvas_background" height="802" width="1662" y="-1" x="-1"/>
 </g>
 <g>
  <title>Layer 1</title>
  <rect id="svg_1" fill="#3b2c1b" height="1024" width="804"/>
  <g id="svg_2" fill-opacity="0.50196" transform="scale(4) translate(0.5,0.5) ">
   <polygon id="svg_3" fill="#d5a37c" points="22 150 110 19 131 149"/>
   <polygon id="svg_4" fill="#050100" points="216 252 77 271 123 138"/>
   <polygon id="svg_5" points="2 -16 -9 66 216 3"/>
   <polygon id="svg_6" points="122 80 88 85 125 112"/>
   <polygon id="svg_7" fill="#c9a17d" points="66 112 89 31 134 54"/>
   <polygon id="svg_8" points="216 -1 202 148 157 -8"/>
   <polygon id="svg_9" fill="#9e7352" points="152 115 82 158 53 90"/>
   <polygon id="svg_10" fill="#4f3d2b" points="216 198 5 159 144 132"/>
   <polygon id="svg_11" fill="#785131" points="56 49 108 20 52 123"/>
   <polygon id="svg_12" fill="#161208" points="71 259 93 214 -12 102"/>
   <polygon id="svg_13" points="43 203 15 193 22 271"/>
   <polygon id="svg_14" fill="#865d40" points="135 99 125 25 97 30"/>
   <polygon id="svg_15" fill="#170f00" points="-16 11 -16 132 135 -16"/>
   <polygon id="svg_16" fill="#130b00" points="176 183 216 263 60 203"/>
   <polygon id="svg_17" fill="#6c5f52" points="21 138 35 117 87 197"/>
   <polygon id="svg_18" fill="#0f0100" points="70 144 124 207 58 167"/>
   <polygon id="svg_19" fill="#120400" points="88 79 148 116 216 116"/>
   <polygon id="svg_20" fill="#080000" points="67 -11 206 56 212 -7"/>
   <polygon id="svg_21" fill="#c19c7a" points="132 126 58 122 107 139"/>
   <polygon id="svg_22" fill="#7b5030" points="69 116 180 128 133 106"/>
   <polygon id="svg_23" fill="#ae7e4f" points="57 42 68 59 56 100"/>
   <polygon id="svg_24" fill="#5a2c0f" points="90 135 114 117 75 105"/>
   <polygon id="svg_25" fill="#7b6856" points="143 177 109 181 77 159"/>
   <polygon id="svg_26" fill="#503d2c" points="64 189 67 122 91 228"/>
   <polygon id="svg_27" fill="#e8d2b5" points="86 84 105 52 113 67"/>
   <polygon id="svg_28" fill="#f3d9ae" points="71 88 100 109 83 77"/>
   <polygon id="svg_29" fill="#74614b" points="177 51 161 65 177 102"/>
   <polygon id="svg_30" fill="#91a594" points="14 251 -16 230 14 226"/>
   <polygon id="svg_31" fill="#160e03" points="62 193 -4 130 19 122"/>
   <polygon id="svg_32" fill="#635644" points="37 216 70 213 44 235"/>
   <polygon id="svg_33" fill="#7f6b4f" points="7 140 34 193 12 178"/>
   <polygon id="svg_34" fill="#2f1204" points="118 108 82 84 176 103"/>
   <polygon id="svg_35" fill="#211802" points="55 31 -11 49 52 112"/>
   <polygon id="svg_36" fill="#150803" points="117 184 150 165 143 137"/>
   <polygon id="svg_37" fill="#211a01" points="200 158 170 128 201 33"/>
   <polygon id="svg_38" fill="#655936" points="216 208 170 177 207 229"/>
   <polygon id="svg_39" fill="#311b17" points="152 23 163 93 107 19"/>
   <polygon id="svg_40" fill="#d19e73" points="145 143 116 118 100 135"/>
   <polygon id="svg_41" fill="#130703" points="141 155 142 171 84 152"/>
   <polygon id="svg_42" fill="#0e0900" points="77 47 77 26 57 70"/>
   <polygon id="svg_43" fill="#a67e5c" points="108 77 123 45 127 84"/>
   <polygon id="svg_44" fill="#87745f" points="50 170 26 127 66 127"/>
   <polygon id="svg_45" fill="#422f1a" points="215 166 138 156 117 113"/>
   <polygon id="svg_46" fill="#714428" points="78 39 95 50 90 73"/>
   <polygon id="svg_47" fill="#2f2511" points="64 83 -16 97 20 134"/>
   <polygon id="svg_48" fill="#070000" points="147 148 106 137 124 148"/>
   <polygon id="svg_49" fill="#b8a07e" points="91 78 65 123 73 82"/>
   <polygon id="svg_50" fill="#59402f" points="142 62 83 30 117 22"/>
   <polygon id="svg_51" fill="#634f38" points="172 114 155 122 150 163"/>
   <polygon id="svg_52" fill="#603e29" points="121 86 143 103 135 36"/>
   <polygon id="svg_53" fill="#150d02" points="148 263 187 219 67 163"/>
   <polygon id="svg_54" fill="#463b25" points="147 206 137 226 137 171"/>
   <polygon id="svg_55" fill="#5a4d42" points="36 201 46 195 24 158"/>
   <polygon id="svg_56" fill="#231808" points="108 255 187 258 15 174"/>
   <polygon id="svg_57" fill="#130d07" points="46 180 64 163 59 234"/>
   <polygon id="svg_58" fill="#0b0000" points="123 93 139 105 100 106"/>
   <polygon id="svg_59" fill="#110800" points="207 -5 110 -6 201 64"/>
   <polygon id="svg_60" points="33 227 4 226 45 201"/>
   <polygon id="svg_61" fill="#c3b497" points="80 137 88 125 65 116"/>
   <polygon id="svg_62" fill="#25170d" points="166 134 157 145 115 114"/>
   <polygon id="svg_63" fill="#2c1c14" points="163 34 139 21 147 119"/>
   <polygon id="svg_64" fill="#806b59" points="86 164 92 136 68 129"/>
   <polygon id="svg_65" fill="#fdc08a" points="135 107 122 113 138 121"/>
   <polygon id="svg_66" fill="#c06d44" points="94 108 115 90 106 90"/>
   <polygon id="svg_67" fill="#5c4a36" points="161 57 172 102 180 63"/>
   <polygon id="svg_68" fill="#151008" points="15 232 28 188 45 271"/>
   <polygon id="svg_69" fill="#918375" points="48 100 57 142 44 118"/>
   <polygon id="svg_70" fill="#66543f" points="38 149 22 138 47 109"/>
   <polygon id="svg_71" fill="#220e00" points="74 81 69 57 80 68"/>
   <polygon id="svg_72" fill="#2e1100" points="92 144 101 138 122 143"/>
   <polygon id="svg_73" fill="#9b7f5d" points="18 199 0 172 4 187"/>
   <polygon id="svg_74" fill="#6a6350" points="157 157 150 131 145 142"/>
   <polygon id="svg_75" fill="#22190b" points="165 193 148 174 107 261"/>
   <polygon id="svg_76" fill="#0d0300" points="168 184 191 204 190 270"/>
   <polygon id="svg_77" fill="#170f00" points="95 -16 73 52 -16 6"/>
   <polygon id="svg_78" fill="#120a00" points="81 25 73 -16 157 13"/>
   <polygon id="svg_79" fill="#3f321e" points="108 223 58 242 88 216"/>
   <polygon id="svg_80" fill="#0e0600" points="-7 153 23 179 0 144"/>
   <polygon id="svg_81" fill="#4d4324" points="138 174 177 154 216 199"/>
   <polygon id="svg_82" fill="#402c20" points="173 80 119 89 160 102"/>
   <polygon id="svg_83" fill="#140c04" points="153 119 132 103 190 101"/>
   <polygon id="svg_84" fill="#291c08" points="145 176 165 216 179 192"/>
   <polygon id="svg_85" fill="#191304" points="206 38 192 124 171 23"/>
   <polygon id="svg_86" fill="#937c65" points="64 156 63 134 36 144"/>
   <polygon id="svg_87" fill="#64533e" points="86 231 81 243 85 245"/>
   <polygon id="svg_88" fill="#060000" points="77 162 96 192 120 196"/>
   <polygon id="svg_89" fill="#564634" points="21 268 50 233 45 264"/>
   <polygon id="svg_90" fill="#251a0d" points="72 245 42 210 61 250"/>
   <polygon id="svg_91" fill="#774c30" points="75 96 90 143 101 131"/>
   <polygon id="svg_92" fill="#381701" points="94 95 92 78 111 83"/>
   <polygon id="svg_93" fill="#1d1402" points="-16 22 35 -16 56 91"/>
   <polygon id="svg_94" fill="#564b3e" points="151 169 132 188 120 175"/>
   <polygon id="svg_95" fill="#271e0b" points="187 79 171 119 216 149"/>
   <polygon id="svg_96" fill="#817364" points="63 219 59 207 66 213"/>
   <polygon id="svg_97" fill="#765d4f" points="67 169 79 192 92 195"/>
   <polygon id="svg_98" fill="#a37a58" points="111 73 131 76 117 51"/>
   <polygon id="svg_99" fill="#2c210e" points="40 134 26 73 43 73"/>
   <polygon id="svg_100" fill="#040000" points="60 199 73 212 72 220"/>
   <polygon id="svg_101" fill="#252117" points="41 243 39 224 1 246"/>
   <polygon id="svg_102" fill="#32231f" points="92 25 130 19 169 37"/>
   <polygon id="svg_103" fill="#5e4727" points="43 212 60 202 47 201"/>
   <polygon id="svg_104" fill="#231a09" points="157 221 177 244 94 225"/>
   <polygon id="svg_105" fill="#3a2d14" points="215 129 163 171 150 129"/>
   <polygon id="svg_106" fill="#786551" points="27 139 63 157 29 125"/>
   <polygon id="svg_107" fill="#87775b" points="19 188 35 180 24 177"/>
   <polygon id="svg_108" fill="#30251b" points="106 202 95 191 64 205"/>
   <polygon id="svg_109" fill="#110a00" points="172 259 144 223 122 239"/>
   <polygon id="svg_110" fill="#563621" points="73 134 74 173 62 139"/>
   <polygon id="svg_111" points="156 222 164 213 144 183"/>
   <polygon id="svg_112" fill="#372418" points="168 67 164 90 129 52"/>
   <polygon id="svg_113" fill="#d69b6a" points="53 116 59 103 62 122"/>
   <polygon id="svg_114" fill="#2e1f10" points="51 168 37 151 26 179"/>
   <polygon id="svg_115" fill="#d4b28d" points="103 96 91 110 84 94"/>
   <polygon id="svg_116" fill="#905d2b" points="76 76 71 87 64 54"/>
   <polygon id="svg_117" fill="#2a1e0f" points="186 243 165 219 160 184"/>
   <polygon id="svg_118" fill="#362a16" points="49 101 -16 136 26 77"/>
   <polygon id="svg_119" fill="#211006" points="77 178 101 157 72 171"/>
   <polygon id="svg_120" fill="#7e6f54" points="178 60 166 67 178 66"/>
   <polygon id="svg_121" fill="#271d08" points="35 95 4 33 -16 85"/>
   <polygon id="svg_122" fill="#100800" points="139 188 99 187 121 227"/>
   <polygon id="svg_123" fill="#896d4e" points="169 129 143 119 169 120"/>
   <polygon id="svg_124" fill="#715a37" points="15 195 15 207 24 215"/>
   <polygon id="svg_125" fill="#473c26" points="139 183 144 198 140 212"/>
   <polygon id="svg_126" fill="#160f00" points="3 131 26 120 14 151"/>
   <polygon id="svg_127" fill="#5b4e33" points="159 185 151 172 170 179"/>
   <polygon id="svg_128" fill="#201004" points="78 181 85 169 72 141"/>
   <polygon id="svg_129" fill="#a69d90" points="51 159 38 132 38 144"/>
   <polygon id="svg_130" fill="#4c331b" points="116 243 114 261 104 261"/>
   <polygon id="svg_131" fill="#0a0200" points="112 204 90 216 120 225"/>
   <polygon id="svg_132" fill="#1b1403" points="59 28 -3 33 53 71"/>
   <polygon id="svg_133" fill="#715033" points="131 89 119 38 133 48"/>
   <polygon id="svg_134" fill="#33250f" points="38 78 70 89 2 93"/>
   <polygon id="svg_135" fill="#554237" points="80 35 96 24 77 67"/>
   <polygon id="svg_136" fill="#250c00" points="59 95 65 106 67 102"/>
   <polygon id="svg_137" fill="#fff5d2" points="90 95 85 89 90 102"/>
   <polygon id="svg_138" fill="#0f0c09" points="56 191 67 153 44 191"/>
   <polygon id="svg_139" fill="#574b2f" points="200 226 215 212 183 188"/>
   <polygon id="svg_140" fill="#261b09" points="-16 46 17 51 -16 174"/>
   <polygon id="svg_141" fill="#34260d" points="174 235 178 268 165 247"/>
   <polygon id="svg_142" fill="#211908" points="86 194 73 208 80 239"/>
   <polygon id="svg_143" fill="#181003" points="126 -16 33 38 68 48"/>
   <polygon id="svg_144" fill="#43361d" points="148 167 215 184 173 144"/>
   <polygon id="svg_145" fill="#140f08" points="12 145 22 166 28 145"/>
   <polygon id="svg_146" fill="#3b2117" points="66 135 62 119 67 122"/>
   <polygon id="svg_147" fill="#1d1308" points="27 182 52 198 48 206"/>
   <polygon id="svg_148" fill="#cbb69e" points="104 64 101 38 94 41"/>
   <polygon id="svg_149" fill="#988867" points="169 114 166 124 169 123"/>
   <polygon id="svg_150" fill="#2f2213" points="128 176 133 189 119 181"/>
   <polygon id="svg_151" fill="#644c37" points="26 137 48 159 38 137"/>
   <polygon id="svg_152" fill="#191101" points="200 63 184 50 177 87"/>
   <polygon id="svg_153" fill="#0e0700" points="82 227 69 242 79 242"/>
   <polygon id="svg_154" fill="#0e0601" points="181 214 155 243 172 202"/>
   <polygon id="svg_155" fill="#544531" points="146 110 157 125 137 122"/>
   <polygon id="svg_156" fill="#1c0d06" points="97 158 120 160 104 167"/>
   <polygon id="svg_157" fill="#433128" points="177 53 154 51 159 31"/>
   <polygon id="svg_158" fill="#8c7966" points="41 199 48 193 33 200"/>
   <polygon id="svg_159" fill="#332714" points="71 83 -14 124 -2 95"/>
   <polygon id="svg_160" fill="#1e1303" points="130 197 118 216 110 178"/>
   <polygon id="svg_161" fill="#b27a49" points="54 81 66 62 60 90"/>
   <polygon id="svg_162" fill="#2f220d" points="21 77 -14 106 74 84"/>
   <polygon id="svg_163" fill="#ae805d" points="77 124 103 119 87 129"/>
   <polygon id="svg_164" fill="#5b4f32" points="176 181 167 182 190 193"/>
   <polygon id="svg_165" fill="#ba825a" points="142 113 127 108 134 123"/>
   <polygon id="svg_166" fill="#130a01" points="193 11 179 58 154 6"/>
   <polygon id="svg_167" fill="#4b301f" points="143 74 137 41 126 64"/>
   <polygon id="svg_168" fill="#66523f" points="152 100 176 85 177 95"/>
   <polygon id="svg_169" points="175 238 212 261 201 271"/>
   <polygon id="svg_170" fill="#140d06" points="27 265 21 193 42 232"/>
   <polygon id="svg_171" fill="#201100" points="184 194 198 235 163 184"/>
   <polygon id="svg_172" points="173 205 187 239 186 222"/>
   <polygon id="svg_173" fill="#e0be8e" points="75 94 60 96 66 90"/>
   <polygon id="svg_174" fill="#251a11" points="52 267 95 271 47 248"/>
   <polygon id="svg_175" fill="#3d301c" points="132 227 119 239 119 232"/>
   <polygon id="svg_176" fill="#76664f" points="48 222 45 242 38 216"/>
   <polygon id="svg_177" fill="#302308" points="195 160 216 125 184 123"/>
   <polygon id="svg_178" fill="#1c1303" points="150 173 162 194 139 198"/>
   <polygon id="svg_179" fill="#130a00" points="36 111 40 106 38 124"/>
   <polygon id="svg_180" fill="#4b3b2a" points="59 157 55 165 41 139"/>
   <polygon id="svg_181" fill="#0a0100" points="60 211 62 228 52 208"/>
   <polygon id="svg_182" fill="#524538" points="40 244 56 220 50 212"/>
   <polygon id="svg_183" fill="#2c1b12" points="129 29 159 81 149 27"/>
   <polygon id="svg_184" fill="#a38669" points="57 146 40 127 53 156"/>
   <polygon id="svg_185" fill="#f6e0c1" points="109 70 103 71 105 59"/>
   <polygon id="svg_186" fill="#4b3f31" points="84 191 73 205 60 166"/>
   <polygon id="svg_187" fill="#241a0d" points="160 228 129 229 143 211"/>
   <polygon id="svg_188" fill="#020000" points="132 226 138 212 132 195"/>
   <polygon id="svg_189" fill="#100801" points="70 -16 200 12 166 34"/>
   <polygon id="svg_190" fill="#423128" points="17 136 33 143 45 163"/>
   <polygon id="svg_191" fill="#181003" points="70 57 86 11 15 -16"/>
   <polygon id="svg_192" fill="#2e2314" points="171 208 149 186 162 209"/>
   <polygon id="svg_193" fill="#171204" points="2 176 -9 154 13 177"/>
   <polygon id="svg_194" fill="#2f2316" points="156 238 160 220 151 225"/>
   <polygon id="svg_195" fill="#a97d54" points="94 83 72 56 91 65"/>
   <polygon id="svg_196" fill="#100404" points="102 173 94 179 98 201"/>
   <polygon id="svg_197" fill="#372b19" points="-16 114 7 126 54 93"/>
   <polygon id="svg_198" fill="#120b01" points="106 18 106 -2 177 22"/>
   <polygon id="svg_199" fill="#b38d69" points="105 59 124 66 97 37"/>
   <polygon id="svg_200" fill="#74604d" points="124 167 92 173 121 180"/>
   <polygon id="svg_201" fill="#352116" points="137 96 165 96 145 48"/>
   <polygon id="svg_202" fill="#493a25" points="90 227 78 212 95 220"/>
   <polygon id="svg_203" fill="#1f170f" points="40 242 34 219 14 231"/>
   <polygon id="svg_204" fill="#110702" points="106 209 104 179 121 209"/>
   <polygon id="svg_205" fill="#4c5040" points="-15 233 15 256 18 237"/>
   <polygon id="svg_206" fill="#bf9977" points="118 58 112 65 105 66"/>
   <polygon id="svg_207" fill="#050000" points="-8 263 2 257 -12 220"/>
   <polygon id="svg_208" fill="#241c0e" points="104 260 85 221 94 271"/>
   <polygon id="svg_209" fill="#a07251" points="98 144 115 152 133 150"/>
   <polygon id="svg_210" fill="#8a5935" points="72 110 84 96 79 89"/>
   <polygon id="svg_211" fill="#1c1406" points="119 228 96 228 78 258"/>
   <polygon id="svg_212" fill="#110600" points="180 103 142 106 156 115"/>
   <polygon id="svg_213" fill="#ad7a52" points="142 94 140 100 138 100"/>
   <polygon id="svg_214" fill="#231b0a" points="195 125 184 91 171 118"/>
   <polygon id="svg_215" fill="#af300c" points="107 90 108 96 114 97"/>
   <polygon id="svg_216" fill="#331902" points="63 71 69 75 84 69"/>
   <polygon id="svg_217" fill="#3f2e22" points="164 101 169 77 144 103"/>
   <polygon id="svg_218" fill="#271207" points="124 93 94 82 96 91"/>
   <polygon id="svg_219" fill="#4d3c2a" points="160 98 171 67 180 69"/>
   <polygon id="svg_220" fill="#291e11" points="108 261 107 237 55 271"/>
   <polygon id="svg_221" fill="#150b02" points="124 155 139 174 149 161"/>
   <polygon id="svg_222" fill="#75624c" points="180 102 176 94 168 94"/>
   <polygon id="svg_223" fill="#453829" points="17 132 37 142 25 129"/>
   <polygon id="svg_224" fill="#130401" points="128 134 146 133 148 124"/>
   <polygon id="svg_225" fill="#392912" points="25 214 2 180 1 226"/>
   <polygon id="svg_226" fill="#502e1c" points="127 155 142 150 109 150"/>
   <polygon id="svg_227" fill="#28180d" points="144 93 154 67 145 74"/>
   <polygon id="svg_228" fill="#563622" points="143 67 130 62 135 98"/>
   <polygon id="svg_229" fill="#271f13" points="99 204 72 189 99 216"/>
   <polygon id="svg_230" fill="#362a1c" points="89 207 105 200 88 199"/>
   <polygon id="svg_231" fill="#3f2f1b" points="48 233 69 241 80 224"/>
   <polygon id="svg_232" fill="#634537" points="76 162 69 162 68 180"/>
   <polygon id="svg_233" fill="#130a00" points="132 233 130 253 145 255"/>
   <polygon id="svg_234" fill="#402b1d" points="139 44 130 25 113 33"/>
   <polygon id="svg_235" fill="#040503" points="52 159 52 170 55 165"/>
   <polygon id="svg_236" fill="#3b2d17" points="190 144 145 145 177 132"/>
   <polygon id="svg_237" fill="#8a6947" points="121 45 129 54 110 56"/>
   <polygon id="svg_238" fill="#2e2210" points="181 97 179 129 169 129"/>
   <polygon id="svg_239" fill="#a79274" points="39 133 36 120 35 132"/>
   <polygon id="svg_240" fill="#231a0f" points="22 222 14 263 41 231"/>
   <polygon id="svg_241" fill="#4e422e" points="73 198 70 205 86 195"/>
   <polygon id="svg_242" fill="#976e49" points="55 110 62 85 54 96"/>
   <polygon id="svg_243" fill="#170d03" points="127 253 117 237 103 233"/>
   <polygon id="svg_244" fill="#5b4c3d" points="80 159 92 161 79 151"/>
   <polygon id="svg_245" fill="#997c58" points="9 154 21 165 5 139"/>
   <polygon id="svg_246" fill="#3b2a1f" points="177 50 154 29 154 45"/>
   <polygon id="svg_247" fill="#31221d" points="123 20 100 22 144 30"/>
   <polygon id="svg_248" fill="#8d7460" points="102 166 109 180 95 166"/>
   <polygon id="svg_249" fill="#c48c67" points="140 142 136 135 131 143"/>
   <polygon id="svg_250" fill="#c89466" points="60 134 59 121 68 142"/>
   <polygon id="svg_251" fill="#45391f" points="101 221 120 227 109 227"/>
   <polygon id="svg_252" fill="#1a170d" points="26 250 -5 250 -1 260"/>
  </g>
 </g>
</svg>